<svg width="600" height="216" viewBox="0 0 600 216" fill="none" xmlns="http://www.w3.org/2000/svg">
<g clip-path="url(#clip0_1_2)">
<path d="M532.112 101.53L581.312 101.543L551.264 156.789L456.868 156.732L427.112 156.733C422.258 156.731 415.497 156.537 410.833 156.827C409.134 156.617 403.749 156.711 401.861 156.701L381.868 156.674L318.692 156.675C320.962 152.454 327.111 143.437 329.905 139.129C333.297 133.896 338.88 124.504 342.471 119.799C341.271 135.021 338.024 145.442 357.253 135.596C359.593 134.398 361.68 133.831 363.395 131.637C364.434 128.474 361.26 126.512 359.037 124.985L360.695 117.925C374.094 117.304 396.006 114.706 404.795 103.358C405.227 102.882 405.701 102.278 406.244 101.972C406.209 105.449 404.823 112.765 407.021 115.643C407.88 116.766 410.378 116.087 410.981 116.707C412.336 118.092 413.416 121.643 414.48 123.101C418.38 128.441 426.398 133.163 433.042 133.502C435.72 133.64 437.968 130.632 439.869 128.678C440.267 120.243 440.672 109.959 441.928 101.714L447.259 101.721C447.325 106.786 447.6 112.328 451.333 116.434C452.615 117.843 457.247 118.96 458.318 120.007C457.794 121.131 454.566 122.981 453.019 124.854C452.946 127.718 452.255 135.069 456.894 134.498C463.541 133.681 472.374 128.483 476.741 123.414C483.183 115.934 490.323 111.132 482.346 101.725L488.22 101.728C487.273 109.005 483.992 125.438 488.391 131.783C492.338 137.481 506.722 134.639 511.121 130.172C519.78 122.37 526.115 111.413 532.112 101.53Z" fill="#001789"/>
<path d="M314.476 101.42L342.158 101.427L308.561 156.796L226.624 156.788L200.665 156.779C197.399 156.779 190.487 156.6 187.385 156.863C178.321 156.51 167.885 156.824 158.693 156.783L90.3796 156.746C102.915 138.427 116.273 119.906 129.076 101.717L142.26 101.725C143.982 106.166 145.826 107.144 148.065 111.041C147.799 118.607 142.233 126.208 144.159 133.9C144.887 136.807 149.851 137.323 151.746 136.221C157.041 133.143 160.323 121.235 162.609 115.705C167.661 115.005 174.246 113.482 179.323 112.441C179.908 118.778 179.605 124.521 179.602 130.933C179.601 134.542 190.521 130.998 192.648 131.025C194.248 131.046 198.193 129.016 197.689 126.746C196.157 125.223 193.392 125.338 191.196 125.171C192.925 124.058 194.922 122.943 196.709 121.914C201.81 119.399 202.301 118.145 202.382 112.408C202.46 106.933 205.469 105.092 208.872 101.429L215.907 101.424C202.905 122.137 226.546 130.952 242.84 134.577C247.145 135.534 248.819 136.918 251.791 133.268C256.463 133.788 258.466 134.421 259.677 128.63C259.766 128.204 259.627 127.754 259.44 127.37C257.183 124.953 245.218 120.438 241.246 117.794C246.973 114.608 254.837 111.064 258.355 105.398C260.394 102.114 258.975 101.301 262.723 101.899C264.368 103.772 262.105 126.025 266.204 128.75C268.265 130.12 272.532 130.443 275.022 130.575C281.539 130.918 286.233 128.326 291.323 124.789C293.981 128.592 297.22 136.098 301.687 136.922C302.928 137.151 304.584 136.39 305.731 135.85C307.181 137.477 308.498 139.521 310.816 139.533C313.326 139.545 316.942 138.552 317.747 135.858C317.277 131.146 316.437 126.604 315.853 121.926C315.016 115.189 314.542 108.214 314.476 101.42Z" fill="#001789"/>
<path d="M347.823 50.202C361.282 50.3075 375.414 53.9484 387.01 60.7596C395.962 66.0189 402.581 81.1928 403.853 90.9579C404.286 94.4056 403.702 99.8447 401.119 102.312C392.387 110.653 372.395 113.769 360.998 114.486C360.199 113.658 359.236 112.395 358.141 112.328C356.975 113.28 355.999 125.254 355.74 127.592C356.877 128.117 359.649 129.11 359.943 130.329C358.57 131.68 347.268 136.614 345.701 136.297C343.383 133.836 347.186 113.017 346.573 108.34C345.995 103.901 344.88 100.152 343.74 95.9598C350.308 94.9237 349.832 94.2841 351.158 87.7489C352.026 83.4606 352.393 80.5979 354.338 76.6024C357.36 75.4088 357.641 75.1391 360.022 72.9296C361.475 72.7799 364.917 72.8821 365.495 71.5966L365.154 71.1835C359.262 68.2391 352.405 67.7154 346.661 64.4315C343.718 61.6108 342.275 54.8934 342.831 51.0936C342.998 49.9322 346.794 50.1941 347.823 50.202ZM367.449 72.4325C365.182 74.7934 360.243 94.957 366.401 95.0751C368.072 95.1068 376.201 92.4287 378.452 91.7264C382.286 90.4567 388.796 89.1073 384.42 83.7587C380.245 78.6587 374.052 73.7916 367.449 72.4325Z" fill="#02833F"/>
<path d="M324.735 162.015C326.996 165.788 329.795 171.422 331.958 175.467L346.405 202.401C351.25 196.24 356.783 190.261 361.712 184.086L362.17 183.406C361.036 182.7 349.257 183.062 347.135 183.084L347.119 179.24L371.887 179.266C366.285 185.979 360.328 192.876 354.865 199.663L371.959 199.664C371.981 200.663 372.246 203.048 371.476 203.712C369.726 203.383 363.284 203.493 361.229 203.494L340.892 203.525C338.987 199.37 336.449 194.519 334.4 190.37L313.986 190.368C312.313 193.627 308.949 200.619 307.1 203.509L301.542 203.516L324.735 162.015ZM316.029 186.523L324.578 186.519L332.409 186.526C331.348 184.441 325.273 172.088 324.246 171.344L316.029 186.523Z" fill="#02833F"/>
<path d="M287.708 80.3949L288.545 80.321C289.539 81.6925 280.515 110.031 283.126 112.997C284.163 112.656 285.031 111.487 285.793 110.711C291.745 104.654 296.683 98.3027 300.921 90.966C304.285 89.9842 308.154 89.0915 311.583 88.2202C311.242 101.873 310.702 121.57 314.163 134.697C313.948 135.094 312.988 135.759 312.603 135.971C310.421 137.178 309.613 133.331 306.809 132.674C305.068 132.265 304.302 132.977 302.631 133.882C296.715 129.792 294.569 121.621 292.003 120.231C290.991 120.529 285.987 124.367 283.607 125.438C279.407 127.624 274.303 127.945 269.734 126.739C266.964 126.008 267.015 118.361 266.93 116.185C266.506 105.402 266.364 93.4579 270.576 83.3394C274.275 82.9898 278.56 82.6841 282.185 82.0977C285.381 81.5804 283.337 80.5576 287.708 80.3949Z" fill="#02833F"/>
<path d="M215.561 79.5786L249.147 79.6519C252.992 85.9216 257.415 94.3648 257.104 101.775C253.135 107.113 245.544 110.423 239.884 113.556C238.873 114.116 237.283 115.402 237.1 116.56C236.233 122.051 254.694 127.35 255.947 129.243C255.37 129.92 255.308 129.733 254.207 129.945L250.202 130.082L247.825 132.517C246.084 132.096 242.725 130.78 241.11 130.613C228.492 129.307 205.175 115.998 220.999 102.281C223.821 99.8349 226.638 97.0689 229.736 94.8325C230.894 93.9963 233.341 92.292 234.226 91.265L233.981 90.8927C231.578 90.1077 218.258 91.253 214.732 91.403L215.561 79.5786Z" fill="#02833F"/>
<path d="M0.107452 0.0933485L101.716 0.0808105L132.583 98.5361C130.735 98.4945 128.55 98.2917 126.68 98.1651C119.769 107.387 111.854 119.59 105.207 129.244C98.8847 138.069 92.5269 147.604 86.3356 156.576L81.1838 156.578C72.054 139.435 63.095 121.703 54.1506 104.436L0.107452 0.0933485Z" fill="#001789"/>
<path d="M187.296 47.3938C189.643 47.0694 191.246 48.7507 193.81 49.8196L197.44 48.7063C202.002 53.6525 200.98 58.5251 201.278 64.8889C201.577 71.2807 201.347 78.6425 201.912 85.0842C202.108 87.3239 206.228 85.6061 207.534 86.7903C208.58 88.9405 206.938 96.9407 206.092 99.4016C203.842 101.373 201.764 102.867 199.806 105.172C199.533 108.502 199.187 113.809 198.418 116.908C194.813 119.156 190.763 120.739 187.063 123.204C186.898 124.594 186.872 126.505 186.816 127.943C185.778 128.355 183.774 129.302 182.775 129.211C182.296 128.214 183.05 127.427 183.031 126.285C182.939 120.655 182.68 115.02 182.463 109.392C175.417 110.129 167.414 111.497 160.271 112.408C160.236 112.42 160.198 112.425 160.166 112.444C158.705 113.298 155.272 126.512 153.897 129.115C153.398 130.06 152.533 129.803 151.68 130.177C150.883 130.527 150.796 131.388 150.505 132.106C150.246 132.742 150.087 133.222 149.385 133.464C148.68 133.708 147.736 133.483 147.102 133.149C146.66 132.457 146.488 131.99 146.687 131.127C148.27 124.294 150.802 118.003 151.624 110.982C150.142 108.134 147.797 105.75 146.249 102.924C145.541 101.632 144.66 99.7342 145.143 98.262C145.891 95.9862 151.398 96.3382 153.35 95.2698C153.394 95.2458 153.437 95.2205 153.48 95.1965C155.407 94.1355 161.329 70.4599 162.86 66.4133C164.534 61.993 171.448 57.184 175.626 55.2766C175.198 53.8201 174.667 52.8145 174.905 51.3381C176.174 49.5451 184.655 48.002 187.296 47.3938ZM177.105 69.0237C176.635 69.3844 175.81 70.094 175.588 70.6077C173.094 76.3645 168.303 86.8691 166.808 92.6477C168.28 92.4342 169.739 92.225 171.205 91.9758C173.075 91.6862 179.535 90.9389 180.74 89.8918C181.432 87.6466 178.617 71.6289 177.866 69.6311L177.105 69.0237Z" fill="#02833F"/>
<path d="M508.33 80.6602C515.362 79.8724 532.812 86.3271 530.851 94.0029C528.198 104.385 515.131 122.643 506.886 129.119C502.945 131.795 494.239 134.301 491.226 129.594C485.467 120.59 492.53 104.713 493.591 95.0137C493.111 94.029 492.237 92.8442 491.599 91.918C497.255 84.9115 499.374 81.8844 508.33 80.6602ZM501.376 97.8184C498.461 106.305 497.391 116.374 509.779 110.475C511.172 109.525 512.687 108.691 513.135 107.023C513.04 103.511 505.07 97.7612 501.376 97.8184Z" fill="#02833F"/>
<path d="M436.045 78.834C439.254 78.5015 439.879 80.3788 440.934 82.9282C439.731 88.7394 438.947 97.8613 438.363 103.913C437.7 110.78 436.541 120.512 436.756 127.248C435.395 128.529 433.879 129.328 432.215 130.123C426.594 128.577 424.787 128.527 420.48 124.605C416.921 120.644 415.614 118.197 413.545 113.413L409.383 113.446L409.393 102.902C414.414 93.9322 425.706 80.4587 436.045 78.834Z" fill="#02833F"/>
<path d="M476.58 78.4245C480.48 78.1109 482.637 81.1744 485.372 83.7048C478.56 88.1167 474.019 89.9438 470.075 97.0201C474.534 99.6601 480.357 103.516 482.567 108.247L482.179 109.43C479.1 118.66 469.279 125.329 460.964 129.49L456.613 131.387L456.6 125.697C460.642 123.893 462.142 121.593 464.125 117.796C460.371 116.659 456.894 115.701 453.398 113.866C450.553 108.249 450.076 100.704 449.454 94.423C459.035 86.0031 465.338 83.8898 476.58 78.4245Z" fill="#02833F"/>
<path d="M495.827 178.494C518.504 176.818 524.081 199.962 501.594 204.307C479.467 206.811 473.106 181.994 495.827 178.494ZM501.038 200.432C516.458 196.976 511.604 180.864 496.475 182.357C481.39 185.553 485.211 201.757 501.038 200.432Z" fill="#02833F"/>
<path d="M182.842 178.479C204.53 176.803 211.561 198.825 189.413 204.196C167.272 207.685 159.389 182.196 182.842 178.479ZM192.615 183.95C189.471 182.233 187.1 182.125 183.64 182.343C167.59 185.668 173.202 202.399 188.307 200.395C190.624 199.829 192.317 199.289 194.224 197.804C199.364 193.801 197.991 186.889 192.615 183.95Z" fill="#02833F"/>
<path d="M92.253 164.001C100.785 163.972 119.89 161.523 120.191 174.829C120.415 184.662 110.673 186.011 103.036 186.19L97.7081 186.192L97.7208 203.507L92.2608 203.52L92.253 164.001ZM114.253 175.717C114.453 166.761 103.79 167.871 97.7012 167.918L97.711 182.284C102.012 182.272 108.258 182.504 112.089 180.466C113.6 178.927 114.204 177.905 114.253 175.717Z" fill="#02833F"/>
<path d="M278.209 212.806L417.407 212.808L449.012 212.791C450.483 212.789 460.213 212.68 461.204 212.929C461.751 213.872 461.545 214.612 461.539 215.817L322.26 215.818L290.611 215.837C289.009 215.838 279.595 215.95 278.587 215.694C278.025 214.721 278.218 214.038 278.209 212.806Z" fill="#001789"/>
<path d="M585.981 133.069C592.891 132.341 599.09 137.339 599.845 144.248C600.599 151.158 595.623 157.376 588.72 158.155C581.779 158.938 575.523 153.931 574.765 146.986C574.007 140.041 579.037 133.802 585.981 133.069ZM586.8 135.443C581.163 135.722 576.827 140.533 577.13 146.169C577.436 151.805 582.262 156.12 587.898 155.791C593.494 155.464 597.776 150.672 597.474 145.071C597.17 139.471 592.402 135.167 586.8 135.443Z" fill="#001789"/>
<path d="M581.371 138.879C584.766 138.858 592.901 137.546 592.153 143.052C591.84 145.375 590.972 145.129 589.526 146.173C588.515 146.903 592.764 149.497 592.765 151.672C591.947 152.297 591.546 152.107 590.371 152.149C587.984 150.608 588.221 146.508 584.375 146.674C582.973 148.427 585.499 150.784 583.058 152.39C580.295 152.079 581.362 141.583 581.371 138.879ZM589.096 141.901C587.975 140.676 585.679 141.055 584.094 141.089C584.085 142.454 583.863 142.933 584.482 144.025C585.682 144.832 587.589 144.316 589.102 144.109C589.339 143.15 589.5 142.799 589.096 141.901Z" fill="#001789"/>
<path d="M442.967 178.42C452.845 177.825 459.142 181.548 459.651 191.832L434.814 191.861C436.977 201.783 446.858 203.277 453.597 197.21L455.204 194.956L460.001 196.926C457.387 200.657 454.2 203.322 449.589 204.097C445.332 204.84 438.464 204.687 434.873 201.695C424.32 192.896 429.802 180.529 442.194 178.474L442.967 178.42ZM453.685 188.196C451.657 183.339 448.355 181.884 443.204 182.366C439.143 183.025 436.725 184.03 435.281 188.237L446.028 188.23C448.254 188.223 451.538 188.307 453.685 188.196Z" fill="#02833F"/>
<path d="M94.4236 212.804L217.475 212.808L243.368 212.787C244.823 212.785 253.086 212.669 254.083 212.942C254.685 213.847 254.458 214.58 254.447 215.818L130.591 215.816C126.611 215.817 96.4333 216.226 94.7599 215.641C94.1987 214.769 94.4135 213.982 94.4236 212.804Z" fill="#001789"/>
<path d="M254.35 179.253L259.813 179.252L268.434 196.913L276.309 179.257L281.791 179.256L274.551 195.258C271.465 201.635 268.413 208.72 265.46 215.214L260.025 215.22L265.662 202.838L254.35 179.253Z" fill="#02833F"/>
<path d="M438.114 53.0795L438.843 53.0372C440.119 53.5864 442.181 58.5395 442.876 60.0215C437.305 64.7975 431.078 70.8228 425.602 75.8562L424.134 74.6094L416.848 68.5229C426.707 57.4393 424.017 56.8267 438.114 53.0795Z" fill="#02833F"/>
<path d="M149.746 178.467C155.299 178.065 159.925 178.593 163.022 183.755L158.409 185.679C156.128 182.235 150.278 180.831 147.52 183.844C145.209 190.737 162.399 187.709 162.985 195.533C163.492 202.308 158.805 203.637 153.484 204.434C147.626 204.575 143.278 204.029 140.044 198.613L144.85 196.504C146.96 199.862 150.516 201.296 154.132 200.395C160.038 198.787 158.752 195.78 153.831 193.805C149.456 192.049 137.871 189.624 142.744 182.302C144.42 179.783 146.865 179.017 149.746 178.467Z" fill="#02833F"/>
<path d="M399.938 179.239L405.101 179.247L405.076 182.81C405.12 187.942 406.165 197.026 402.313 200.895C397.427 205.799 385.784 205.719 380.912 200.96C376.746 196.893 378.006 184.995 378.025 179.248L383.119 179.252C383.116 182.974 382.048 196.077 385.307 198.585C390.512 202.584 399.894 201.124 399.941 192.8C399.966 188.758 399.982 183.699 399.938 179.239Z" fill="#02833F"/>
<path d="M529.642 178.471C535.563 178.027 539.725 178.554 543.275 183.748L538.519 185.716C535.756 181.271 527.495 180.959 527.454 185.336C527.422 188.938 537.512 189.35 540.42 191.528C543.24 193.641 544.355 196.962 542.201 200.454C540.344 203.268 536.883 203.906 533.845 204.425C527.908 204.571 523.462 204.095 520.143 198.603L524.88 196.532C527.912 200.544 533.119 202.377 537.562 198.646C538.146 198.157 538.045 197.468 537.969 196.792C535.664 193.1 529.168 192.874 525.717 190.652C517.993 185.685 522.663 180.039 529.642 178.471Z" fill="#02833F"/>
<path d="M216.836 178.463C222.588 178.003 226.848 178.659 230.247 183.709L225.542 185.708C223.317 182.19 217.541 180.923 214.694 183.771C212.17 190.701 229.513 187.717 230.109 195.443C230.638 202.298 226.072 203.657 220.586 204.44C214.665 204.556 210.595 204.023 207.158 198.631L211.888 196.568C214.263 199.56 216.055 200.74 220.049 200.547C222.165 200.444 225.248 199.507 225.032 196.917C222.04 191.552 204.855 192.373 209.744 182.302C210.785 180.159 214.495 178.93 216.836 178.463Z" fill="#02833F"/>
<path d="M416.005 161.754L421.276 161.743L421.241 203.514L415.98 203.517L416.005 161.754Z" fill="#02833F"/>
<path d="M467.962 179.229L473.277 179.254C473.008 190.928 473.226 203.44 473.236 215.177C471.739 215.271 469.519 215.211 467.965 215.218L467.962 179.229Z" fill="#02833F"/>
<path d="M483.309 212.803L518.015 212.789C520.412 212.788 530.672 212.635 532.273 212.987C532.727 213.718 532.573 214.909 532.547 215.814L500.04 215.836C495.821 215.84 487.352 216.108 483.651 215.692C483.123 215.041 483.294 213.71 483.309 212.803Z" fill="#001789"/>
<path d="M127.641 179.258L132.976 179.255L132.978 203.513L127.64 203.515L127.641 179.258Z" fill="#02833F"/>
<path d="M469.516 167.651C474.082 167.454 476.722 171.107 471.796 173.43C467.138 173.489 464.7 170.214 469.516 167.651Z" fill="#02833F"/>
<path d="M129.401 167.63C133.721 167.491 136.422 170.921 131.614 173.42C126.783 173.529 124.443 170.084 129.401 167.63Z" fill="#02833F"/>
</g>
<defs>
<clipPath id="clip0_1_2">
<rect width="600" height="216" fill="white"/>
</clipPath>
</defs>
</svg>
