<svg width="32" height="27" viewBox="0 0 32 27" fill="none" xmlns="http://www.w3.org/2000/svg">
<g clip-path="url(#clip0_20_2400)">
<path d="M31.7841 12.3194C31.7138 11.0055 31.6576 9.66803 31.6031 8.37481C31.55 7.11541 31.4953 5.81309 31.4273 4.53272C31.3291 2.67335 30.3723 1.31878 28.661 0.615397C28.0567 0.367191 27.313 0.235941 26.3891 0.213794C23.9416 0.155601 21.453 0.128702 19.0462 0.102551C18.1895 0.0932052 17.3329 0.083425 16.4764 0.0732156C16.4548 0.055333 16.4277 0.0455055 16.3997 0.0454911H14.4047C12.7835 0.0454911 11.1624 0.0459712 9.54153 0.0467566C9.24485 0.0467566 8.94724 0.0460856 8.65069 0.045261C7.75914 0.0421982 6.83712 0.0396563 5.93033 0.0726404C4.6923 0.117522 3.73898 0.359576 2.93042 0.834547C1.29291 1.79674 0.419424 3.1702 0.334208 4.91706C0.289314 5.83697 0.274191 6.77261 0.259656 7.67755L0.250163 8.24413C0.237035 9.00362 0.223318 9.76295 0.209018 10.5221C0.162952 13.0238 0.115245 15.6105 0.0963734 18.1556C0.0887543 19.1687 0.13986 20.3673 0.575787 21.5757C1.22047 23.3631 2.40963 24.5186 4.21124 25.1083C5.88743 25.6441 7.63538 25.9188 9.39431 25.9226C13.7665 25.9793 18.3524 26.0062 23.7495 26.0062H24.7979C25.7898 26.023 26.7799 25.9154 27.7452 25.6855C29.958 25.1167 31.2694 23.7536 31.6429 21.6339C31.7616 20.9149 31.8441 20.1901 31.8899 19.4626C32.0516 17.255 31.9304 15.0179 31.8129 12.8541L31.7841 12.3194ZM11.3377 23.9975C9.44389 23.9917 7.42027 23.9197 5.4542 23.4351C4.66311 23.2402 4.09731 23.0119 3.64521 22.7031L13.4023 13.6852L13.6747 13.9797C13.9461 14.2734 14.2264 14.5765 14.5095 14.8769C15.3288 15.7466 16.1327 15.8179 17.0388 15.1014C17.4095 14.8084 17.7618 14.4769 18.1024 14.1575C18.2313 14.0361 18.3617 13.914 18.4939 13.7924L28.0436 23.4795C27.7135 23.7522 27.3145 23.8093 26.8942 23.8695L26.7735 23.887C26.3219 23.9473 25.8667 23.9753 25.4112 23.9706L22.7401 23.9803C19.0025 23.9943 15.1384 24.009 11.3377 23.9975ZM26.2476 3.86538C24.8188 5.16177 23.3414 6.50216 21.9325 7.8683C20.5267 9.23148 19.1483 10.6601 17.8152 12.0421C17.2635 12.6142 16.6938 13.2048 16.1313 13.7811L4.26504 2.08526C4.34999 2.06256 4.43427 2.03963 4.51788 2.01646C4.8414 1.928 5.14698 1.84419 5.45913 1.78258C7.01118 1.4763 8.60919 1.51796 10.1547 1.55883C10.4999 1.56779 10.845 1.57664 11.1899 1.5823C11.7148 1.59054 12.2491 1.60813 12.7655 1.62521C13.2141 1.63994 13.678 1.65525 14.1347 1.66432C15.4193 1.68985 16.7039 1.71435 17.9886 1.73784C20.7654 1.78991 23.6366 1.84392 26.4601 1.91201C26.8572 1.93403 27.2517 1.98986 27.6393 2.07893C27.7917 2.10944 27.9496 2.14075 28.1064 2.16808V2.172C27.4888 2.7392 26.858 3.3117 26.2474 3.86584L26.2476 3.86538ZM6.26229 18.0931C5.07219 19.2303 3.84295 20.4053 2.65426 21.6059C2.16055 20.4353 1.90466 19.4745 1.82847 18.5111C1.61748 15.8386 1.70516 13.1784 1.8137 10.6828C1.86329 9.54477 1.8831 8.38724 1.90232 7.26778C1.91545 6.50679 1.92904 5.71986 1.95178 4.94709C1.97523 4.12744 2.24799 3.5523 2.85798 3.04399L12.1298 12.198C10.2422 14.2891 8.2191 16.2227 6.26159 18.094L6.26229 18.0931ZM29.6363 21.406C29.593 21.6407 29.535 21.8726 29.4626 22.0999C29.4366 22.1882 29.4106 22.2766 29.3861 22.365L29.3487 22.3775L19.5205 12.7523C22.918 9.23006 26.1401 6.2261 29.3629 3.57559C29.3767 3.6379 29.3908 3.69856 29.4046 3.7577C29.462 3.97235 29.5001 4.19168 29.5185 4.4132C29.6272 6.64245 29.7158 8.84247 29.7809 10.5103C29.8419 12.0753 29.894 13.6195 29.9357 15.1001C29.9879 16.9749 29.9937 19.1907 29.6356 21.4064L29.6363 21.406Z" fill="white"/>
</g>
<defs>
<clipPath id="clip0_20_2400">
<rect width="32" height="26.0339" fill="white"/>
</clipPath>
</defs>
</svg>
