<svg width="32" height="32" viewBox="0 0 32 32" fill="none" xmlns="http://www.w3.org/2000/svg">
<g clip-path="url(#clip0_20_2397)">
<path d="M1.43183 31.3653C1.87499 31.3068 2.31303 31.2148 2.74214 31.0899C2.84041 31.064 2.93845 31.0381 3.03649 31.0131C4.11201 30.7386 5.26524 30.441 6.41202 30.1236C7.05678 29.9452 7.50139 30.0133 7.94826 30.3589C8.2535 30.5953 8.63614 30.728 9.00607 30.8564C9.08732 30.8846 9.16811 30.913 9.24755 30.9415C11.6117 31.8025 14.0567 31.9033 16.3493 31.8813C16.6217 31.8983 16.895 31.9068 17.1692 31.9067C19.8988 31.9067 22.6966 31.0725 25.3111 29.4721C28.2735 27.6586 30.2743 25.0294 31.2579 21.6574C32.0582 18.9134 32.0996 15.89 31.3846 12.4146C30.5124 8.17433 28.195 4.9031 24.4967 2.69024C22.7196 1.62937 20.7885 0.84884 18.7719 0.376303C17.393 0.0613021 15.9691 -0.00764191 14.5661 0.172737C12.8538 0.371521 11.2597 0.880579 9.39301 1.5839C5.5849 3.01858 2.90293 5.79943 1.19354 10.0855C-0.247587 13.6995 -0.185301 17.6954 1.3903 22.6606C1.69237 23.6126 1.72993 24.3294 1.5158 25.0578C1.23314 26.0189 0.961706 26.9998 0.698784 27.9486C0.574188 28.399 0.44898 28.8494 0.323175 29.2996C0.30048 29.3788 0.275183 29.4579 0.249538 29.5371C0.215495 29.6409 0.180783 29.7484 0.153322 29.8578C0.0339461 30.3345 0.100987 30.7491 0.342234 31.0256C0.576788 31.2941 0.964651 31.4149 1.43183 31.3653ZM3.15939 23.1752C2.55093 21.5321 2.33023 19.7454 2.11678 18.0175C2.09181 17.8156 2.06669 17.6139 2.04143 17.4121C1.75559 15.1547 1.97968 13.0215 2.70751 11.072C4.1626 7.17351 6.54706 4.60685 9.99682 3.22464C11.342 2.68595 12.9463 2.10633 14.6478 1.89138C17.2314 1.56493 19.8362 2.14895 22.8452 3.72916C25.2849 5.01041 27.0531 6.70525 28.2503 8.9102C29.0112 10.3324 29.5102 11.879 29.7235 13.4766C30.025 15.5542 30.2482 18.0222 29.6179 20.5709C28.8528 23.6656 27.1413 25.9893 24.3855 27.6742C22.114 29.0787 19.4828 29.7977 16.81 29.7442C15.176 29.7203 13.735 29.643 12.4057 29.5078C11.1796 29.4022 9.99207 29.0281 8.92778 28.4124C8.55395 28.1744 8.12111 28.0444 7.6775 28.0369C7.47016 28.0379 7.26386 28.0663 7.06394 28.1212C6.21072 28.3489 5.33572 28.5555 4.48953 28.7554C4.10644 28.8459 3.72346 28.9371 3.3406 29.0292C3.0796 29.0925 2.81862 29.1579 2.50225 29.2373L2.14548 29.3266C2.24681 28.955 2.34214 28.5968 2.43474 28.2485C2.67428 27.3479 2.90065 26.4972 3.16482 25.6704C3.42026 24.8718 3.51706 24.1411 3.15939 23.1752Z" fill="white"/>
<path d="M5.85212 11.3848C6.07691 11.937 6.34367 12.4712 6.65008 12.983C8.93093 16.5751 11.4792 19.7888 14.225 22.5345C15.1135 23.4046 16.0601 24.2138 17.0583 24.9564C17.8842 25.6118 18.9075 25.9709 19.9633 25.9758C20.5079 25.9718 21.0488 25.8862 21.5678 25.7221C23.1234 25.244 24.4615 24.3782 25.6756 23.5137C26.1807 23.1544 26.4679 22.7065 26.5068 22.2186C26.546 21.7258 26.3207 21.2235 25.8554 20.7665C24.4004 19.3366 22.8406 17.9717 21.3716 16.7096C20.5009 15.9618 19.9078 15.9505 18.9314 16.6629C18.8079 16.7534 18.6882 16.8497 18.5723 16.9432C18.4789 17.0186 18.3858 17.094 18.2901 17.1663C17.3681 17.8634 17.22 17.8601 16.3137 17.1228C16.0165 16.8909 15.7517 16.6204 15.5263 16.3186L15.3674 16.0959C14.8264 15.3655 14.3227 14.6082 13.8582 13.8271C12.9007 12.1498 12.9659 11.8946 14.6318 10.793C14.6556 10.7773 14.6727 10.7533 14.68 10.7258C14.888 9.93869 14.5488 9.41676 14.1513 8.97C13.708 8.47157 13.2652 7.97251 12.8229 7.47288C12.3154 6.9005 11.8074 6.32844 11.299 5.75666C11.1365 5.57393 10.9586 5.4007 10.8054 5.25258C10.4726 4.9319 10.1068 4.86629 9.71742 5.05818C8.4111 5.7027 6.95476 6.56729 6.0566 8.09594C5.43124 9.16065 5.35089 10.2413 5.8175 11.3079L5.85212 11.3848ZM12.7143 10.3821C12.5171 10.4875 12.334 10.6175 12.1696 10.769C11.5909 11.3534 11.3605 12.1135 11.5525 12.802C12.4232 15.9242 13.6944 17.9204 15.6745 19.2746C16.7855 20.0344 17.924 20.0298 19.0589 19.2609C19.4081 19.0243 19.7441 18.7664 20.0999 18.4935C20.2425 18.384 20.3889 18.2716 20.5417 18.1564L24.0246 21.8721C22.7067 22.9109 21.5689 23.4877 20.3488 23.7378C19.966 23.8263 19.5674 23.8215 19.1868 23.724C18.8063 23.6265 18.4549 23.4391 18.1623 23.1775C17.9168 22.9623 17.6705 22.7474 17.4235 22.533C16.3756 21.6215 15.2919 20.6786 14.3108 19.6736C12.2427 17.554 10.3102 15.1286 8.40283 12.2584C8.20708 11.9639 8.03697 11.6415 7.87232 11.33C7.80605 11.2044 7.73978 11.0788 7.67158 10.9544C7.17649 10.0504 7.2843 9.17126 7.98319 8.4122C8.4078 7.96917 8.85607 7.54927 9.32605 7.15436C9.52781 6.97808 9.73545 6.7968 9.94958 6.604L12.9014 10.2693C12.8381 10.3087 12.7754 10.3462 12.7143 10.3821Z" fill="white"/>
</g>
<defs>
<clipPath id="clip0_20_2397">
<rect width="32" height="32" fill="white"/>
</clipPath>
</defs>
</svg>
