<svg width="480" height="480" viewBox="0 0 480 480" fill="none" xmlns="http://www.w3.org/2000/svg">
<g clip-path="url(#clip0_22_3056)">
<path fill-rule="evenodd" clip-rule="evenodd" d="M480 0H0V480H480V0ZM465.994 134.335C465.47 128.593 465.105 121.657 464.709 114.135C463.201 85.4927 461.246 48.3663 448.336 36.4048C419.003 8.72138 362.123 8.68579 313.876 8.6556C300.845 8.64744 288.444 8.63968 277.385 8.08769C229.635 5.43311 180.446 8.14442 132.112 10.8086C111.7 11.9337 71.5061 13.7511 71.5061 13.7511C71.5061 13.7511 47.2711 12.3074 36.1789 21.0019C11.4341 40.398 12.4196 66.7587 13.4452 94.19C13.832 104.537 14.2246 115.037 13.2439 125.373C5.56264 191.481 5.98901 252.913 9.02442 319.576C9.48565 358.695 13.8512 397.601 22.0253 435.44C50.3555 498.446 356.554 469.42 427.962 445.823C456.098 436.62 460.755 427.181 464.442 400.516C475.625 312.355 476.148 222.679 465.994 134.335Z" fill="white"/>
<path fill-rule="evenodd" clip-rule="evenodd" d="M464.677 114.135C465.073 121.657 465.438 128.593 465.963 134.335C476.116 222.679 475.593 312.355 464.411 400.516C460.724 427.181 456.068 436.62 427.933 445.823C356.53 469.42 50.3521 498.446 22.0238 435.44C13.8503 397.601 9.485 358.695 9.02379 319.576C5.98859 252.913 5.56225 191.481 13.243 125.373C16.8232 87.637 2.09984 47.7145 36.1764 21.0019C47.2679 12.3074 71.5013 13.7511 71.5013 13.7511C71.5013 13.7511 111.693 11.9337 132.103 10.8086C180.434 8.14442 229.62 5.43311 277.366 8.08769C288.424 8.63968 300.825 8.64744 313.855 8.6556C362.099 8.68579 418.975 8.72138 448.306 36.4048C461.215 48.3663 463.17 85.4927 464.677 114.135ZM71.5013 24.5553C90.9896 24.5553 163.535 24.5553 222.954 24.5553C388.121 24.5553 423.265 21.0019 436.665 54.5749C445.995 77.9521 444.11 94.2855 445.186 118.479C448.829 200.382 471.521 391.548 436.665 425.057C401.808 458.566 56.4272 474.473 37.3521 425.057C22.2545 385.945 25.8401 354.396 24.9342 318.396C24.9342 318.396 22.5546 192.179 24.9342 114.135C27.2627 37.7673 44.4972 24.5553 71.5013 24.5553Z" fill="black"/>
<path fill-rule="evenodd" clip-rule="evenodd" d="M48.8835 54.2298C47.8353 52.2271 47.52 49.9303 47.9905 47.7257C48.4611 45.5211 49.6888 43.5431 51.4672 42.1244C60.8179 37.2822 72.3832 46.7244 63.7707 55.1983C62.7419 56.1233 61.5334 56.8341 60.2181 57.2878C58.9029 57.7415 57.5079 57.9287 56.1172 57.8382C54.7264 57.7478 53.3687 57.3814 52.1255 56.7613C50.8824 56.1412 49.7796 55.2801 48.8835 54.2298Z" fill="black"/>
<path fill-rule="evenodd" clip-rule="evenodd" d="M91.6487 54.1359C92.7332 52.0245 93.0809 49.5829 92.6321 47.2317C92.1833 44.8805 90.9661 42.7669 89.19 41.2549C79.7241 35.9736 68.1682 46.1497 76.8966 55.0376C77.9142 56.0094 79.107 56.7581 80.4049 57.2398C81.7027 57.7214 83.0794 57.9263 84.4539 57.8422C85.8284 57.7582 87.173 57.3871 88.4086 56.7506C89.6442 56.1141 90.7459 55.2251 91.6487 54.1359Z" fill="black"/>
<path fill-rule="evenodd" clip-rule="evenodd" d="M116.682 41.9279C118.273 43.61 119.227 45.7965 119.379 48.1091C119.531 50.4216 118.872 52.7147 117.515 54.5916C109.694 62.0727 95.8368 55.7696 102.006 45.1403C102.74 43.9415 103.707 42.9036 104.851 42.0889C105.994 41.2743 107.29 40.6996 108.661 40.3996C110.032 40.0995 111.449 40.0802 112.827 40.3429C114.206 40.6055 115.517 41.1446 116.682 41.9279Z" fill="black"/>
</g>
<defs>
<clipPath id="clip0_22_3056">
<rect width="480" height="480" fill="white"/>
</clipPath>
</defs>
</svg>
